<svg width="900" height="600" viewBox="0 0 900 600" fill="none" xmlns="http://www.w3.org/2000/svg">
<g clip-path="url(#clip0_1_2)">
<path d="M900 0H0V600H900V0Z" fill="#A8B38E"/>
<path d="M0 325L18.8 340.2C37.7 355.3 75.3 385.7 112.8 398.3C150.3 411 187.7 406 225.2 395.8C262.7 385.7 300.3 370.3 337.8 371.5C375.3 372.7 412.7 390.3 450.2 398.2C487.7 406 525.3 404 562.8 397.5C600.3 391 637.7 380 675.2 379.8C712.7 379.7 750.3 390.3 787.8 389C825.3 387.7 862.7 374.3 881.3 367.7L900 361V601H881.3C862.7 601 825.3 601 787.8 601C750.3 601 712.7 601 675.2 601C637.7 601 600.3 601 562.8 601C525.3 601 487.7 601 450.2 601C412.7 601 375.3 601 337.8 601C300.3 601 262.7 601 225.2 601C187.7 601 150.3 601 112.8 601C75.3 601 37.7 601 18.8 601H0V325Z" fill="#FF9843"/>
<path d="M0 444L18.8 431.8C37.7 419.7 75.3 395.3 112.8 387.3C150.3 379.3 187.7 387.7 225.2 392.8C262.7 398 300.3 400 337.8 406C375.3 412 412.7 422 450.2 424.7C487.7 427.3 525.3 422.7 562.8 416C600.3 409.3 637.7 400.7 675.2 400C712.7 399.3 750.3 406.7 787.8 417.7C825.3 428.7 862.7 443.3 881.3 450.7L900 458V601H881.3C862.7 601 825.3 601 787.8 601C750.3 601 712.7 601 675.2 601C637.7 601 600.3 601 562.8 601C525.3 601 487.7 601 450.2 601C412.7 601 375.3 601 337.8 601C300.3 601 262.7 601 225.2 601C187.7 601 150.3 601 112.8 601C75.3 601 37.7 601 18.8 601H0V444Z" fill="#F7A24F"/>
<path d="M0 485L18.8 475.8C37.7 466.7 75.3 448.3 112.8 448.5C150.3 448.7 187.7 467.3 225.2 478.7C262.7 490 300.3 494 337.8 493.8C375.3 493.7 412.7 489.3 450.2 480.2C487.7 471 525.3 457 562.8 454.3C600.3 451.7 637.7 460.3 675.2 469.3C712.7 478.3 750.3 487.7 787.8 486.2C825.3 484.7 862.7 472.3 881.3 466.2L900 460V601H881.3C862.7 601 825.3 601 787.8 601C750.3 601 712.7 601 675.2 601C637.7 601 600.3 601 562.8 601C525.3 601 487.7 601 450.2 601C412.7 601 375.3 601 337.8 601C300.3 601 262.7 601 225.2 601C187.7 601 150.3 601 112.8 601C75.3 601 37.7 601 18.8 601H0V485Z" fill="#F0AA5C"/>
<path d="M0 540L18.8 537.2C37.7 534.3 75.3 528.7 112.8 529C150.3 529.3 187.7 535.7 225.2 535.3C262.7 535 300.3 528 337.8 520.5C375.3 513 412.7 505 450.2 505.3C487.7 505.7 525.3 514.3 562.8 510.2C600.3 506 637.7 489 675.2 490.8C712.7 492.7 750.3 513.3 787.8 520C825.3 526.7 862.7 519.3 881.3 515.7L900 512V601H881.3C862.7 601 825.3 601 787.8 601C750.3 601 712.7 601 675.2 601C637.7 601 600.3 601 562.8 601C525.3 601 487.7 601 450.2 601C412.7 601 375.3 601 337.8 601C300.3 601 262.7 601 225.2 601C187.7 601 150.3 601 112.8 601C75.3 601 37.7 601 18.8 601H0V540Z" fill="#EAB26B"/>
<path d="M0 566L18.8 561.2C37.7 556.3 75.3 546.7 112.8 538.5C150.3 530.3 187.7 523.7 225.2 529.5C262.7 535.3 300.3 553.7 337.8 555.8C375.3 558 412.7 544 450.2 543C487.7 542 525.3 554 562.8 560.2C600.3 566.3 637.7 566.7 675.2 560.2C712.7 553.7 750.3 540.3 787.8 535.8C825.3 531.3 862.7 535.7 881.3 537.8L900 540V601H881.3C862.7 601 825.3 601 787.8 601C750.3 601 712.7 601 675.2 601C637.7 601 600.3 601 562.8 601C525.3 601 487.7 601 450.2 601C412.7 601 375.3 601 337.8 601C300.3 601 262.7 601 225.2 601C187.7 601 150.3 601 112.8 601C75.3 601 37.7 601 18.8 601H0V566Z" fill="#E4B97A"/>
<g clip-path="url(#clip1_1_2)">
<path d="M833.519 391.407C832.812 391.815 831.525 391.892 831.217 391.563C831.054 391.388 830.891 391.446 830.528 391.757C830.256 391.97 829.966 392.106 829.876 392.048C829.785 392.009 829.513 392.106 829.259 392.281C828.879 392.552 828.697 392.572 828.335 392.378C827.701 392.067 827.338 392.106 827.066 392.494C826.867 392.785 826.776 392.804 826.468 392.591C826.251 392.475 826.051 392.358 825.997 392.358C825.924 392.358 825.942 392.475 826.015 392.591C826.087 392.727 825.961 392.669 825.743 392.475C825.362 392.106 825.326 392.106 824.837 392.416C824.184 392.824 823.731 392.843 823.731 392.455C823.731 392.048 823.459 392.086 823.151 392.572C823.024 392.804 822.517 393.134 822.046 393.328C821.284 393.639 821.194 393.639 821.194 393.367C821.194 393.212 821.339 392.901 821.52 392.688C821.828 392.3 821.828 392.3 821.248 392.649C820.668 393.018 820.65 393.018 820.396 392.649C820.142 392.281 820.106 392.281 819.562 392.591C819.236 392.785 818.837 392.94 818.656 392.94C818.475 392.94 818.276 393.018 818.203 393.115C818.058 393.386 817.007 393.91 816.844 393.813C816.753 393.755 816.662 393.91 816.626 394.143C816.59 394.434 816.463 394.57 816.246 394.57C816.01 394.55 815.937 394.686 815.937 395.113C815.937 395.618 815.901 395.676 815.666 395.462C815.448 395.268 815.394 395.288 815.394 395.618C815.394 396.122 815.067 396.374 814.361 396.394C813.799 396.413 813.762 396.374 813.762 395.715C813.762 395.016 813.762 395.016 813.4 395.365C813.11 395.656 813.056 395.87 813.146 396.316C813.255 396.917 813.255 396.917 812.892 396.568C812.385 396.083 811.932 396.219 811.696 396.937C811.587 397.267 811.261 397.771 810.953 398.043C810.446 398.508 810.427 398.567 810.627 399.149C810.844 399.75 810.826 399.769 810.409 399.672C810.011 399.595 809.956 399.653 809.956 400.158C809.956 400.584 810.101 400.798 810.591 401.108C811.243 401.516 811.424 401.865 810.989 401.865C810.627 401.865 809.775 402.331 809.775 402.525C809.775 402.622 809.648 402.583 809.503 402.447C809.34 402.311 809.177 402.253 809.104 402.331C808.905 402.544 809.594 403.184 810.174 403.301C810.609 403.398 810.699 403.495 810.627 403.786C810.572 404.018 810.645 404.212 810.808 404.271C811.189 404.426 810.953 404.717 810.319 404.853C809.829 404.95 809.775 405.008 809.956 405.338C810.246 405.959 810.174 406.114 809.503 406.25C809.159 406.308 808.814 406.444 808.76 406.541C808.706 406.638 808.506 406.715 808.289 406.715C807.981 406.715 807.944 406.793 808.053 407.142C808.506 408.539 807.981 409.878 806.748 410.499C806.367 410.693 805.932 410.964 805.787 411.1C804.591 412.245 804.446 412.342 803.739 412.342C803.196 412.342 802.906 412.458 802.597 412.827C802.289 413.176 801.999 413.312 801.51 413.312C801.111 413.312 800.676 413.448 800.477 413.642C800.205 413.913 799.788 413.991 798.537 413.991C797.613 414.01 796.834 414.107 796.689 414.224C796.526 414.379 796.217 414.398 795.728 414.282C795.329 414.185 794.713 414.088 794.351 414.088C793.988 414.088 793.589 413.952 793.462 413.797C793.281 413.564 793.172 413.545 792.991 413.719C792.81 413.874 792.665 413.874 792.502 413.739C792.339 413.583 792.176 413.7 791.849 414.204C791.378 414.942 789.547 416.183 787.934 416.901C787.372 417.134 786.883 417.386 786.811 417.464C786.756 417.522 786.502 417.58 786.285 417.58C786.049 417.58 785.814 417.658 785.759 417.774C785.705 417.871 785.451 417.968 785.197 417.968C784.889 417.968 784.708 418.123 784.581 418.453C784.472 418.744 784.273 418.938 784.037 418.938C783.838 418.938 783.675 419.035 783.675 419.152C783.675 419.249 783.476 419.675 783.222 420.064C782.968 420.452 782.769 420.956 782.769 421.169C782.769 421.48 782.461 421.732 781.409 422.236C779.289 423.265 778.727 424.177 780.213 424.177C780.956 424.177 781.627 424.584 781.427 424.914C781.246 425.244 780.122 425.205 779.488 424.836C778.763 424.448 778.636 424.603 779.144 425.283C779.488 425.748 779.506 425.826 779.234 425.884C779.071 425.923 778.872 426.175 778.781 426.427C778.654 426.757 778.473 426.893 778.147 426.893C777.893 426.893 777.694 427.009 777.694 427.164C777.694 427.3 777.367 427.65 776.969 427.941C776.57 428.212 776.244 428.523 776.244 428.639C776.244 428.93 777.005 429.415 777.476 429.415C778.002 429.415 778.165 429.881 777.821 430.443C777.676 430.676 776.951 431.53 776.226 432.325C775.501 433.121 774.431 434.382 773.851 435.139C773.289 435.876 772.311 437.137 771.712 437.913C771.114 438.689 770.534 439.543 770.444 439.814C770.335 440.125 770.154 440.28 770.009 440.222C769.846 440.144 769.791 440.222 769.846 440.474C769.954 440.92 769.266 441.444 768.595 441.444C768.214 441.444 768.087 441.541 768.087 441.832C768.087 442.084 767.924 442.259 767.598 442.336C766.692 442.55 765.695 443.151 765.459 443.617C765.351 443.869 765.151 444.044 765.042 444.024C764.916 443.986 764.825 444.083 764.825 444.238C764.825 444.859 764.191 445.712 763.737 445.712C763.157 445.712 762.831 446.042 762.831 446.624C762.831 446.973 762.722 447.07 762.396 447.07C762.161 447.07 761.925 447.206 761.852 447.361C761.798 447.517 761.599 447.653 761.417 447.653C761.236 447.653 760.674 447.963 760.185 448.332C759.696 448.7 759.17 449.011 759.007 449.011C758.59 449.011 757.376 449.573 756.995 449.922C756.687 450.233 756.071 450.369 754.657 450.446C754.149 450.485 753.624 450.66 753.352 450.893C752.953 451.222 752.663 451.281 751.412 451.242C750.597 451.203 749.89 451.125 749.836 451.067C749.763 451.009 749.074 450.951 748.295 450.951C747.479 450.951 746.881 450.873 746.881 450.757C746.881 450.64 746.428 450.563 745.884 450.563C745.123 450.563 744.924 450.505 744.996 450.291C745.069 450.116 744.869 450 744.344 449.903L743.582 449.767L743.891 449.282L744.199 448.778L743.637 448.914C742.93 449.069 742.35 448.758 742.477 448.235C742.549 447.924 742.477 447.847 742.078 447.847C741.716 447.847 741.353 447.614 740.864 447.051C740.483 446.624 740.102 446.314 740.012 446.372C739.812 446.508 738.072 443.287 737.909 442.472C737.855 442.123 737.71 441.793 737.619 441.735C737.529 441.657 737.456 441.463 737.456 441.289C737.456 441.114 737.239 440.746 736.967 440.435C736.423 439.834 736.532 439.446 737.094 439.989C737.71 440.571 737.746 440.125 737.202 438.999C736.822 438.223 736.477 437.816 735.97 437.544L735.263 437.156L735.662 436.574C736.187 435.779 736.024 435.041 735.317 435.1C734.683 435.158 734.647 434.615 735.281 434.44L735.734 434.324L735.227 434.091C734.937 433.974 734.592 433.877 734.447 433.877C734.284 433.877 734.194 433.664 734.194 433.218C734.194 432.248 734.049 431.957 733.287 431.549C732.508 431.122 731.566 429.725 731.276 428.542C730.913 427.145 730.913 427.145 730.696 427.611C730.605 427.863 730.46 428.057 730.369 428.057C730.134 428.057 729.499 426.427 729.246 425.147C729.101 424.448 728.865 423.614 728.702 423.284C728.557 422.954 728.212 421.965 727.977 421.053C727.723 420.161 727.379 419.016 727.197 418.511C726.835 417.503 726.944 417.173 727.487 417.541C727.904 417.813 728.575 417.852 728.575 417.6C728.575 417.503 728.448 417.328 728.303 417.192C728.158 417.056 728.031 416.843 728.031 416.707C728.031 416.552 727.814 416.183 727.56 415.853C727.216 415.407 727.143 415.194 727.288 414.903C727.433 414.612 727.342 414.456 726.871 414.049C726.545 413.758 726.092 413.137 725.874 412.652C725.675 412.167 725.421 411.76 725.349 411.76C724.968 411.76 724.714 410.518 724.606 408.209C724.497 405.881 724.461 405.687 724.062 405.338C723.591 404.93 723.192 404.872 722.521 405.144C722.177 405.299 721.977 405.26 721.633 404.95C720.981 404.406 720.147 404.484 718.896 405.241C717.356 406.153 716.975 406.211 715.761 405.745C715.181 405.532 714.474 405.357 714.184 405.357C713.712 405.357 708.329 407.258 707.459 407.724C707.26 407.841 706.698 408.364 706.209 408.888C703.726 411.566 700.137 413.176 696.059 413.428C694.591 413.525 694.083 413.642 693.467 414.01C693.05 414.262 691.944 414.689 691.02 414.961C690.096 415.233 688.555 415.756 687.612 416.144C685.963 416.823 685.818 416.94 684.06 418.822C682.483 420.529 682.193 420.956 681.812 422.042C681.577 422.741 681.087 424.099 680.689 425.069C680.308 426.039 680 427.048 680 427.3C680 427.979 680.489 428.639 680.997 428.639C682.012 428.639 683.335 429.105 684.332 429.822C684.912 430.23 685.582 430.579 685.818 430.579C686.054 430.579 687.214 430.269 688.392 429.881L690.512 429.143L692.107 429.687C692.977 429.978 693.811 430.288 693.956 430.366C694.337 430.579 694.464 433.916 694.301 438.728C694.21 440.804 694.156 445.868 694.156 449.981C694.137 465.211 694.79 469.906 697.382 472.913L698.252 473.922L698.741 473.592C699.303 473.185 699.339 472.894 698.868 472.273C698.687 472.021 698.125 470.954 697.617 469.925C696.566 467.791 696.294 466.511 695.932 461.816C695.714 459.099 695.606 440.008 695.805 439.795C695.859 439.737 696.131 439.834 696.421 439.989C696.784 440.183 697.454 440.261 698.487 440.241C699.865 440.222 700.318 440.299 702.747 441.134C705.321 442.007 706.009 442.336 707.278 443.19C707.586 443.384 708.039 443.617 708.311 443.675C708.746 443.792 708.837 443.714 709.344 442.763C709.652 442.201 710.124 441.153 710.377 440.416C710.649 439.678 710.921 439.174 711.03 439.232C711.121 439.31 711.411 439.814 711.646 440.358C712.009 441.211 712.063 441.541 711.972 442.628C711.882 443.501 711.918 443.947 712.063 444.044C712.19 444.141 712.262 443.986 712.262 443.598C712.262 442.88 712.48 442.822 712.806 443.481C713.006 443.889 713.006 444.005 712.752 444.296C712.534 444.548 712.516 444.742 712.661 444.994C712.824 445.344 712.842 445.344 713.223 444.994C713.586 444.665 713.586 444.665 713.459 445.014C713.386 445.247 713.459 445.518 713.676 445.79C714.057 446.236 714.437 447.303 714.437 447.924C714.437 448.157 714.709 448.758 715.054 449.263C715.779 450.349 717.664 454.385 718.316 456.189C719.005 458.149 720.908 462.359 721.778 463.853C722.304 464.784 723.5 466.2 725.439 468.218C728.992 471.943 730.242 473.107 732.2 474.524C734.302 476.037 739.704 478.87 741.897 479.607C744.616 480.538 750.343 481.411 753.769 481.411C757.249 481.411 764.336 480.48 766.909 479.665C767.616 479.452 768.595 479.18 769.084 479.083C769.592 478.967 770.353 478.753 770.806 478.598C773.416 477.705 776.497 476.755 776.769 476.755C776.951 476.755 777.748 477.647 778.709 478.928C781.119 482.187 781.572 482.672 783.874 484.341C785.034 485.194 786.086 486.009 786.212 486.165C786.466 486.475 787.681 491.83 788.75 497.262C789.149 499.319 789.729 501.899 790.037 502.986C791.179 507.099 791.596 509.951 792.012 516.567C792.121 518.255 792.284 520.137 792.393 520.738C792.611 521.902 792.574 523.222 792.176 532.263C791.958 537.365 791.958 537.443 792.339 538.083C792.774 538.859 794.278 543.729 794.55 545.242C794.967 547.609 795.094 550.811 794.912 555.331C794.677 561.035 794.496 563.247 793.825 567.651C793.227 571.667 792.991 572.424 791.994 574.092C790.979 575.742 790.581 577.003 790.291 579.331C789.982 581.911 789.529 582.59 786.883 584.511C785.723 585.345 784.636 585.792 783.077 586.083C782.316 586.218 781.609 587.072 780.847 588.799C780.086 590.525 780.304 590.836 782.334 590.836C782.914 590.836 783.186 590.933 783.367 591.224C783.747 591.806 784.69 591.864 790.291 591.631C796.761 591.34 798.338 591.03 799.407 589.808C799.788 589.381 799.806 589.264 799.625 588.411C799.516 587.906 799.317 587.247 799.172 586.956C798.918 586.432 798.918 586.412 799.48 586.296C799.788 586.238 800.93 586.18 802.017 586.18C805.153 586.18 807.636 585.365 808.434 584.084C808.778 583.541 808.814 583.347 808.651 582.726C808.379 581.698 808.035 581.019 807.292 580.146C806.676 579.428 806.639 579.292 806.621 578.05C806.621 576.77 806.657 576.653 807.382 575.547C807.799 574.907 808.198 574.112 808.252 573.782C808.325 573.452 808.234 572.385 808.071 571.396C807.509 567.826 807.183 564.042 806.875 557.485C806.512 549.724 806.676 543.419 807.437 534.862C807.962 528.887 807.944 527.626 807.346 525.938C806.005 522.271 804.573 513.637 803.884 505.178C803.721 503.257 803.395 499.94 803.159 497.805C802.452 491.616 802.416 490.879 802.779 489.502C802.96 488.842 803.214 488.008 803.359 487.658L803.631 486.999L804.265 487.523C806.295 489.191 810.083 489.366 816.155 488.085C818.112 487.658 818.547 487.62 819.146 487.833C819.617 487.988 822.281 488.085 827.537 488.144C834.606 488.221 835.494 488.202 838.231 487.814C839.881 487.6 841.965 487.232 842.853 487.038C843.759 486.824 844.956 486.553 845.554 486.436C846.134 486.32 847.076 486.048 847.638 485.835C848.2 485.641 849.179 485.35 849.831 485.194C853.964 484.283 861.196 479.723 868.119 473.709C872.107 470.216 873.647 468.994 873.792 469.149C873.865 469.227 873.847 470.857 873.738 472.758C873.539 476.153 873.539 476.27 873.937 477.279C874.155 477.861 874.3 478.52 874.246 478.753C874.191 478.986 873.919 480.014 873.666 481.023C873.394 482.051 873.176 483.429 873.158 484.127C873.14 485.291 873.212 485.544 874.082 487.367C874.608 488.473 875.369 490.433 875.768 491.733C876.656 494.527 877.617 496.835 878.487 498.194C878.831 498.737 879.502 500.017 879.973 501.026C880.843 502.889 880.843 502.908 880.843 504.809C880.843 505.877 880.789 507.39 880.716 508.185C880.553 510.436 880.952 518.255 881.387 521.01C881.604 522.348 881.786 524.366 881.786 525.55C881.804 527.839 881.151 534.3 880.752 535.736C880.227 537.617 879.719 540.431 879.375 543.399C878.904 547.551 877.925 551.645 875.659 558.92C873.176 566.914 872.451 568.873 871.527 570.096C870.385 571.59 869.678 572.715 868.736 574.5C867.612 576.634 866.325 577.895 864.222 578.885C863.026 579.467 862.265 579.68 861.232 579.777C859.764 579.913 859.021 580.281 858.132 581.271C857.426 582.066 857.244 582.707 857.48 583.58C857.77 584.608 857.897 584.763 858.676 584.88C860.634 585.229 865.836 585.656 868.137 585.675C870.476 585.694 870.838 585.656 871.4 585.287C872.469 584.627 872.669 583.89 872.397 581.581L872.252 580.398L873.792 578.768L875.333 577.158L876.004 574.694C876.366 573.336 876.91 571.59 877.218 570.814C877.526 570.037 878.469 567.476 879.321 565.129C883.127 554.613 887.803 544.02 891.084 538.491C891.664 537.501 892.28 536.453 892.425 536.162C892.57 535.871 892.751 535.6 892.842 535.58C892.914 535.542 892.969 535.386 892.969 535.25C892.969 535.095 893.114 534.862 893.295 534.727C893.694 534.416 894.781 532.166 894.781 531.661C894.781 531.467 894.618 530.555 894.437 529.682C893.259 524.211 892.117 505.663 892.951 505.663C893.204 505.663 893.676 507.7 894.691 512.997C895.633 517.925 896.666 521.708 898.207 525.899C898.334 526.268 898.406 529.178 898.406 534.921C898.406 541.653 898.461 543.632 898.678 544.563C899.113 546.542 899.023 549.258 898.207 558.047C898.116 559.173 897.79 561.734 897.5 563.771C897.21 565.789 896.902 568.291 896.793 569.32C896.521 571.881 895.851 574.228 894.6 576.964C894.002 578.244 893.404 579.835 893.259 580.495C892.933 582.028 892.498 582.784 891.174 584.084C889.978 585.268 888.546 585.947 886.824 586.18C885.773 586.335 885.592 586.432 884.776 587.285C883.761 588.333 883.362 589.032 883.362 589.749C883.362 590.351 883.979 590.836 884.758 590.836C885.139 590.836 885.429 590.972 885.61 591.263C885.991 591.845 887.006 591.981 891.156 591.981C894.944 592 897.518 591.767 898.497 591.34C899.512 590.875 899.693 589.323 898.968 587.285C898.479 585.908 898.769 584.996 900.418 582.881L901.089 581.989L901.216 578.807C901.433 572.521 901.796 569.611 903.3 561.928C903.681 559.949 904.079 557.64 904.188 556.806C904.424 555.04 905.221 551.334 906.019 548.308C906.853 545.087 909.1 537.656 909.481 536.822C909.662 536.395 909.825 535.91 909.825 535.736C909.825 535.561 910.024 535.134 910.278 534.765C910.532 534.397 910.731 534.028 910.731 533.951C910.731 533.854 911.021 533.33 911.384 532.767C911.964 531.875 912.018 531.661 911.946 530.885C911.891 530.4 911.402 528.906 910.84 527.548C909.499 524.269 908.719 521.65 907.922 517.847C907.541 516.101 907.016 513.773 906.744 512.648C905.493 507.72 905.276 505.372 905.403 498.116C905.493 492.489 905.566 491.345 905.783 491.578C905.946 491.733 906.2 493.266 906.399 495.244C906.49 496.176 906.762 497.553 906.998 498.291C907.414 499.571 907.433 499.707 907.179 500.347C906.816 501.259 906.925 501.337 907.559 500.619C907.849 500.289 908.194 500.037 908.321 500.037C908.611 500.037 908.629 499.765 908.339 499.261C908.176 498.989 908.176 498.795 908.339 498.446C908.448 498.194 908.593 497.786 908.629 497.514C908.665 497.243 908.846 496.641 909.009 496.156C909.173 495.671 909.354 494.546 909.408 493.634C909.463 492.683 909.608 491.869 909.753 491.694C909.898 491.519 909.952 491.19 909.879 490.937C909.825 490.685 909.861 490.433 909.988 490.336C910.169 490.239 910.169 490.006 910.006 489.346C909.825 488.687 909.843 488.202 910.006 487.193C910.278 485.718 910.151 485 909.354 483.293C909.118 482.769 908.919 482.265 908.919 482.148C908.919 482.051 908.574 481.062 908.176 479.956C907.632 478.52 907.451 477.803 907.541 477.434C907.704 476.774 908.049 476.91 908.321 477.744C908.502 478.326 908.538 478.346 908.538 477.919C908.556 477.434 908.448 477.22 907.396 475.591C906.834 474.756 906.78 474.174 906.689 468.703C906.689 468.121 907.07 464.396 907.487 461.234C907.686 459.681 907.849 457.8 907.868 457.062C907.904 455.297 907.505 447.788 907.269 445.868C906.889 442.802 905.747 440.183 903.427 437.195C902.648 436.167 901.796 434.925 901.56 434.44C901.343 433.955 900.853 433.024 900.509 432.403C900.146 431.782 899.856 431.103 899.856 430.909C899.856 430.734 899.802 430.579 899.711 430.579C899.639 430.579 899.476 430.308 899.331 429.978C899.204 429.648 898.696 429.066 898.207 428.697C897.718 428.329 897.319 427.941 897.319 427.824C897.319 427.708 897.119 427.456 896.866 427.242C896.612 427.029 896.413 426.699 896.413 426.505C896.413 426.291 896.322 425.903 896.195 425.651C896.032 425.244 896.05 425.089 896.286 424.797C896.666 424.351 896.666 423.75 896.322 422.683C896.177 422.236 896.104 421.732 896.159 421.596C896.268 421.286 894.618 419.598 893.875 419.249C893.621 419.132 893.059 418.802 892.606 418.511C892.153 418.24 891.301 417.832 890.703 417.6C888.927 416.959 887.459 416.261 887.241 415.95C887.133 415.776 886.788 415.64 886.48 415.64C886.172 415.64 885.864 415.543 885.809 415.446C885.755 415.33 885.338 415.252 884.921 415.252C884.486 415.252 883.779 415.116 883.362 414.961C882.946 414.806 882.529 414.709 882.456 414.767C882.384 414.825 882.221 414.728 882.094 414.573C881.931 414.359 881.496 414.282 880.535 414.282C879.393 414.282 879.157 414.224 878.976 413.894C878.849 413.68 878.614 413.506 878.469 413.506C878.306 413.506 878.016 413.389 877.834 413.234C877.653 413.098 877.345 413.021 877.164 413.079C876.946 413.137 876.837 413.06 876.837 412.846C876.837 412.439 876.33 412.245 874.934 412.07C873.883 411.934 872.089 411.197 871.853 410.77C871.781 410.673 871.545 410.479 871.346 410.382C871.128 410.285 870.421 409.897 869.769 409.528C869.116 409.16 868.482 408.849 868.355 408.849C868.228 408.849 868.083 408.694 868.011 408.5C867.956 408.326 867.793 408.035 867.666 407.879C867.539 407.724 867.449 407.491 867.467 407.394C867.485 407.278 867.249 407.181 866.923 407.142C866.542 407.103 866.307 406.948 866.234 406.715C866.126 406.327 863.842 404.581 863.479 404.581C863.117 404.581 862.537 403.514 862.646 403.068C862.718 402.719 862.682 402.66 862.446 402.757C862.047 402.913 861.069 402.466 861.069 402.136C861.069 401.981 860.942 401.865 860.797 401.865C860.416 401.865 860.452 401.671 860.942 401.128L861.341 400.662L860.616 400.798C860.017 400.914 859.927 400.895 860.126 400.681C860.471 400.274 860.38 399.925 859.945 399.983C859.619 400.022 859.51 399.905 859.474 399.478C859.437 399.129 859.311 398.955 859.093 398.955C858.93 398.955 858.459 398.78 858.078 398.547C857.607 398.295 857.154 398.198 856.773 398.256C856.157 398.353 856.03 398.217 856.374 397.849C856.501 397.713 856.139 397.616 855.106 397.558C853.909 397.48 853.547 397.383 853.202 397.034C852.967 396.801 852.477 396.568 852.115 396.491C851.209 396.335 851.136 396.103 851.897 395.715C852.26 395.54 852.55 395.327 852.55 395.268C852.55 395.191 852.242 395.055 851.879 394.958C851.317 394.822 851.191 394.686 851.209 394.337C851.227 393.93 851.154 393.891 850.756 394.007C850.012 394.221 848.399 394.337 848.091 394.221C847.856 394.124 847.91 393.988 848.399 393.503C849.161 392.727 848.925 392.494 847.312 392.397C846.333 392.339 846.079 392.261 846.152 392.048C846.261 391.718 845.735 391.679 845.028 391.97C844.666 392.125 844.484 392.106 844.285 391.873C843.614 391.175 843.487 391.155 839.482 391.252C838.159 391.291 837.452 391.388 837.234 391.582C836.745 392.009 835.331 391.951 834.697 391.466C834.153 391.058 834.135 391.058 833.519 391.407ZM809.775 406.89C809.775 407.103 809.068 407.297 808.959 407.103C808.923 407.026 808.923 406.909 808.996 406.832C809.177 406.657 809.775 406.696 809.775 406.89ZM702.692 432.888C706.136 434.362 707.894 435.255 708.42 435.759C708.547 435.895 708.746 436.012 708.855 436.012C709.272 436.012 708.021 440.164 707.459 440.668C707.278 440.843 706.553 440.668 704.251 439.892C700.209 438.534 699.774 438.301 699.176 437.273C698.705 436.438 698.687 436.38 698.796 433.897C698.85 432.5 698.959 431.355 699.013 431.355C699.086 431.355 700.735 432.054 702.692 432.888ZM733.541 433.14C734.157 434.052 733.65 434.634 732.834 433.994C732.526 433.761 732.508 433.645 732.707 433.218C732.961 432.597 733.179 432.578 733.541 433.14ZM698.85 437.564C698.85 438.126 698.016 439.814 697.672 439.969C697.255 440.125 697.309 440.144 696.584 439.484C696.131 439.058 695.95 438.728 695.95 438.32C695.95 437.777 695.986 437.758 696.82 437.758C697.309 437.758 697.853 437.641 698.052 437.467C698.542 437.079 698.85 437.117 698.85 437.564ZM906.291 489.56C906.454 490.103 906.472 490.53 906.381 490.724C906.236 490.976 906.218 490.976 906.2 490.685C906.2 490.511 906.109 490.336 906.019 490.297C905.91 490.258 905.783 489.579 905.747 488.784C905.656 487.232 905.638 487.193 906.291 489.56ZM907.886 493.634C907.994 495.885 907.813 495.885 907.469 493.595C907.288 492.373 907.288 492.024 907.469 491.791C907.596 491.616 907.723 491.519 907.741 491.539C907.759 491.578 907.831 492.509 907.886 493.634ZM908.013 497.107C908.013 497.534 907.541 498.232 907.378 498.058C907.306 497.98 907.306 497.573 907.378 497.126C907.487 496.467 907.541 496.37 907.759 496.564C907.904 496.68 908.013 496.932 908.013 497.107ZM801.601 550.675C801.709 551.897 801.854 555.486 801.909 558.629C802.054 565.73 801.909 567.573 800.912 570.658C800.531 571.9 800.096 573.569 799.969 574.403C799.842 575.218 799.661 575.897 799.571 575.897C799.353 575.897 799.516 563.771 799.788 560.375C799.897 558.94 800.06 556.495 800.169 554.943C800.277 553.391 800.531 551.257 800.731 550.19C800.912 549.123 801.075 548.211 801.075 548.153C801.075 548.114 801.147 548.153 801.238 548.25C801.329 548.366 801.492 549.452 801.601 550.675Z" fill="black"/>
<path d="M809.086 401.496C809.122 401.632 809.267 401.787 809.394 401.826C809.539 401.884 809.612 401.807 809.557 401.651C809.521 401.516 809.376 401.36 809.249 401.322C809.104 401.263 809.032 401.341 809.086 401.496Z" fill="black"/>
<path d="M737.819 441.056C737.819 441.153 737.909 441.25 738.018 441.25C738.109 441.25 738.145 441.153 738.091 441.056C738.036 440.94 737.946 440.862 737.891 440.862C737.855 440.862 737.819 440.94 737.819 441.056Z" fill="black"/>
<path d="M738.181 442.026C738.181 442.123 738.272 442.22 738.381 442.22C738.471 442.22 738.507 442.123 738.453 442.026C738.399 441.91 738.308 441.832 738.254 441.832C738.217 441.832 738.181 441.91 738.181 442.026Z" fill="black"/>
</g>
<g clip-path="url(#clip2_1_2)">
<path d="M169.54 423.138C169.28 423.394 169.4 424.319 169.9 425.716C170.18 426.504 170.54 428.157 170.7 429.397C171.04 431.877 171.48 433.275 172.4 434.613C172.72 435.105 173 435.597 173 435.715C173 436.089 172.26 436.601 170.56 437.447C168.96 438.235 168.9 438.274 168.84 439.002C168.78 439.632 168.66 439.79 168.04 440.105C167.64 440.302 167.12 440.676 166.9 440.912C166.54 441.305 166.54 441.364 166.82 441.581C167.12 441.778 167.08 441.876 166.52 442.526C165.84 443.313 163.5 447.565 163.66 447.722C163.72 447.781 163.96 447.722 164.2 447.604C164.44 447.466 164.6 447.447 164.56 447.545C164.52 447.624 164.2 448.273 163.84 448.982C163.08 450.497 163 450.99 163.6 450.458C164.5 449.671 164.14 450.399 162.9 451.895C161.34 453.824 161.2 454.277 162.4 453.607C163.2 453.155 163.26 453.273 162.62 454.04C161.98 454.847 161.34 456.127 160.9 457.544C160.64 458.43 160.72 458.627 161.16 458.194C161.64 457.721 161.64 458.272 161.12 459.611C160.36 461.658 160.48 462.76 161.38 461.914C161.68 461.658 161.72 461.481 160.96 464.394C160.6 465.772 160.56 466.146 160.76 466.283C160.94 466.382 160.96 466.579 160.82 466.913C160.66 467.366 160.52 468.311 160.58 468.724C160.6 468.823 160.88 468.705 161.22 468.449C161.56 468.212 161.9 468.094 161.98 468.193C162.24 468.508 163.16 470.889 163.56 472.307C163.78 473.055 164.32 474.806 164.78 476.204C165.52 478.507 165.58 478.822 165.48 480.14C165.36 481.321 165.44 481.873 165.8 483.113C166.2 484.412 166.24 484.746 166.04 485.278C165.72 486.144 165.74 486.872 166.1 487.581C166.3 487.955 166.38 488.388 166.3 488.821C166.2 489.254 166.28 489.687 166.48 490.081C166.84 490.789 166.9 492.147 166.6 493.683C166.34 494.982 166.48 495.651 167.14 496.438L167.66 497.048L167.24 498.348C167.02 499.076 166.76 499.883 166.68 500.158C166.62 500.434 166.3 500.906 166 501.241C165.2 502.087 165.06 502.461 164.9 504.016C164.74 505.571 164.58 505.985 164.14 505.807C163.68 505.63 162.7 506.339 162.32 507.126C162.14 507.52 161.86 507.835 161.7 507.835C161.54 507.835 161.2 508.032 160.98 508.248C160.6 508.622 160.48 508.642 159.76 508.445C159.16 508.268 158.64 508.268 157.54 508.445C156.74 508.583 155.84 508.622 155.54 508.543C154.96 508.406 152.7 506.555 150.46 504.351C148.32 502.245 147.42 500.158 144.2 489.923C143.74 488.467 143.08 486.734 142.74 486.085C141.24 483.132 138.92 480.534 135.5 477.995C132.24 475.594 130.88 474.078 128.32 469.964C127.06 467.976 125.04 464.197 124.32 462.485C123.96 461.619 123.94 461.52 124.18 461.658C124.26 461.717 124.5 461.638 124.7 461.5C125.04 461.264 125 461.205 124.24 460.792C123.78 460.536 123.4 460.201 123.4 460.044C123.4 459.886 123.72 459.473 124.1 459.138C124.76 458.528 124.78 458.469 124.46 458.194C124.26 458.016 123.78 457.741 123.4 457.603L122.7 457.308L123.46 457.072C123.86 456.934 124.2 456.757 124.2 456.678C124.2 456.481 122.86 455.871 122.4 455.871C121.76 455.871 121.76 455.536 122.44 455.005L123.08 454.513L122.54 454.395C121.9 454.237 121.84 453.981 122.4 453.804C123.32 453.529 122.72 453.096 120.9 452.722L119.7 452.466L120.86 452.092C121.48 451.875 122 451.619 122 451.521C122 451.423 121.42 451.344 120.7 451.344C119.3 451.344 119.06 451.147 120 450.753C120.74 450.458 120.78 450.025 120.08 449.848C119.46 449.69 117.78 449.907 117.52 450.163C117.28 450.399 116.6 450.419 116.6 450.202C116.6 450.104 116.78 449.868 117 449.671C117.52 449.198 117.16 448.943 116.36 449.218C115.64 449.474 115.44 449.297 115.88 448.805C116.68 447.939 115.26 448.313 114.22 449.238L113.74 449.671L113.84 448.647C113.96 447.506 113.76 447.447 112.76 448.352L112.2 448.864V448.155C112.2 447.762 112.28 447.21 112.4 446.935C112.66 446.226 112.44 446.285 111.5 447.21C110.72 447.958 110.7 447.978 110.68 447.506C110.66 447.23 110.58 446.856 110.5 446.659C110.38 446.403 110.28 446.541 110.12 447.191C109.84 448.254 109.48 448.431 109.16 447.663L108.92 447.112L108.84 447.702C108.74 448.549 108.4 448.805 108.4 448.057C108.4 447.368 108.22 446.817 108.02 446.817C107.94 446.817 107.72 447.269 107.52 447.821L107.14 448.844L106.78 448.372C106.58 448.116 106.3 447.663 106.18 447.348C105.84 446.541 105.54 446.699 105.66 447.604C105.78 448.529 105.54 448.628 105.16 447.801C105.02 447.466 104.84 447.21 104.74 447.21C104.66 447.21 104.54 447.466 104.48 447.801C104.4 448.116 104.32 448.391 104.28 448.391C104.26 448.391 103.9 448.195 103.5 447.978C102.46 447.368 102.18 447.742 102.98 448.647C103.7 449.435 103.76 449.671 103.2 449.376C102.58 449.061 100.28 448.883 100.12 449.159C99.98 449.395 100.08 449.435 101.1 449.671C101.66 449.809 101.6 449.848 100.4 450.143C99.54 450.36 99.08 450.557 99.04 450.773C99 451.029 99.1 451.068 99.54 451.009C99.86 450.97 99.6 451.127 98.94 451.403C97.72 451.915 97.2 452.269 97.2 452.545C97.2 452.643 97.34 452.722 97.5 452.722C97.7 452.722 97.56 452.938 97.16 453.312C96.6 453.804 96.54 453.922 96.8 454.119C97.02 454.257 97.04 454.355 96.86 454.414C96.32 454.631 95 455.694 94.8 456.068C94.56 456.521 94.66 456.56 95.22 456.265C95.74 455.989 95.7 456.245 95.1 457.052C94.82 457.426 94.64 457.859 94.7 457.997C94.92 458.568 92.92 461.441 91.18 463.055C89.66 464.453 88.68 464.807 86.66 464.669C84.52 464.512 83.58 464.217 82.62 463.41C81.86 462.78 81.64 462.189 81.6 460.497C81.58 460.28 81.44 459.886 81.28 459.631C81.02 459.276 81.02 459.138 81.2 459.02C81.4 458.902 81.36 458.686 81.02 458.135C80.78 457.702 80.64 457.249 80.7 457.032C80.78 456.796 80.72 456.619 80.52 456.54C80.34 456.481 80.2 456.284 80.2 456.127C80.2 455.969 80.3 455.91 80.4 455.969C80.52 456.028 80.6 456.009 80.6 455.891C80.6 455.792 80.28 455.595 79.9 455.458C79.4 455.281 79.22 455.103 79.26 454.808C79.28 454.552 79.16 454.375 78.9 454.336C78.28 454.218 78.06 453.922 78.4 453.706C78.66 453.529 78.66 453.489 78.4 453.312C78.24 453.214 77.86 453.115 77.58 453.115C77.12 453.115 77.06 453.056 77.16 452.584C77.24 452.171 77.2 452.092 76.92 452.19C76.74 452.269 76.46 452.387 76.26 452.466C75.98 452.564 75.96 452.486 76.06 451.777C76.18 450.852 76.04 450.753 75.5 451.344C75.18 451.698 75.1 451.718 74.96 451.442C74.72 451.029 74.46 451.068 74.3 451.541C74.1 452.171 73.74 451.757 73.86 451.029C74 450.163 73.72 450.183 72.88 451.088L72.2 451.816V451.088V450.36L71.6 450.99C71.16 451.482 71.02 451.56 71 451.285C71 450.832 70.86 450.852 70.06 451.462L69.4 451.954V451.305L69.38 450.655L68.78 451.383C68.08 452.23 67.86 452.308 67.76 451.698C67.64 450.891 67.2 451.068 66.76 452.112C66.36 453.037 66 453.411 66 452.919C66 452.8 65.88 452.722 65.72 452.722C65.42 452.722 65.2 453.135 65.2 453.706C65.2 454.257 64.8 454.414 64.66 453.922C64.5 453.293 64.16 453.529 63.82 454.513C63.66 454.985 63.5 455.261 63.46 455.123C63.3 454.69 62.94 454.867 63.06 455.32C63.14 455.576 62.98 456.206 62.7 456.855C62.42 457.465 62.14 458.627 62.04 459.512C61.84 461.225 61.18 463.803 60.06 467.189C59.34 469.334 55.38 477.306 54.18 479.019C53.54 479.963 47.86 485.947 46.74 486.872C45.44 487.974 40.58 493.131 39.36 494.745C37.2 497.54 36.18 500.178 35.5 504.646C34.4 511.89 33.76 523.975 34.18 529.29C34.36 531.533 34.54 532.498 35.02 533.876C35.58 535.47 35.6 535.687 35.4 536.671C35.02 538.442 34.1 539.997 32.3 541.867L30.64 543.58L28.46 543.816C20.58 544.682 10.84 549.189 4.87998 554.74C1.89998 557.515 0.339983 559.779 0.0799826 561.649C-0.460017 565.428 7.37998 570.861 16.72 573.183C21.7 574.443 25.58 574.541 30.4 573.577C33.12 573.026 33.78 572.967 35.8 573.045C38.6 573.144 39.52 573.459 42.26 575.23C44.64 576.785 45.78 577.179 47.9 577.179C49.7 577.179 51.06 576.943 53.8 576.116C57.64 574.974 58.92 575.152 62.6 577.297C66.64 579.659 68.44 580.171 72.9 580.171C76.68 580.151 78.6 579.856 85.68 578.104C93.86 576.096 95.42 575.86 100.6 575.84C105.28 575.84 106.14 575.978 109.14 577.12C111.08 577.848 114.14 579.541 114.76 580.21C115.68 581.214 114.82 582.454 111.02 585.446C106.3 589.205 105 590.642 105 592.158C105 593.733 106.5 594.815 110 595.701C113.48 596.606 116.36 596.882 122.7 596.882C128.86 596.902 131.9 596.705 137.6 595.898C145.3 594.815 151.6 593.181 155.52 591.233C156.62 590.682 157.66 590.386 160.12 589.934C169.1 588.241 180.34 586.843 191.44 586.036C197.22 585.623 213.62 585.564 219.7 585.938C229.26 586.548 241.14 587.552 245.7 588.182C246.58 588.3 247.84 588.398 248.5 588.418C249.16 588.438 249.92 588.556 250.18 588.713C250.5 588.89 250.98 588.93 251.7 588.831C252.46 588.753 252.96 588.812 253.58 589.048C254.26 589.304 254.52 589.324 254.98 589.127C255.56 588.91 256 588.221 256 587.591C256 586.469 254.04 585.702 252.64 586.273C251.98 586.568 251.82 586.548 251.04 586.253C250.54 586.076 249.88 585.977 249.52 586.036C249.02 586.115 248.62 585.997 247.88 585.564C247.28 585.21 246.62 584.993 246.14 584.993C245.72 584.993 244.94 584.777 244.4 584.501C243.86 584.226 243.16 584.009 242.84 584.009C242.52 584.009 241.94 583.753 241.48 583.419C241.06 583.104 240.46 582.828 240.18 582.828C239.86 582.828 239.18 582.493 238.58 582.041C237.98 581.608 237.32 581.253 237.08 581.253C236.8 581.253 236.34 580.899 235.8 580.269C235.34 579.718 234.8 579.285 234.58 579.285C234.36 579.285 233.88 578.852 233.4 578.222C232.96 577.632 232.42 577.12 232.22 577.061C232 577.021 231.66 576.569 231.44 576.057C231.18 575.486 230.84 575.073 230.52 574.955C230.26 574.856 229.74 574.345 229.38 573.793C228.94 573.164 228.46 572.691 227.94 572.475C227.2 572.14 226.6 571.372 226.6 570.723C226.6 570.546 226.36 570.172 226.08 569.896C225.8 569.621 225.3 568.833 225 568.164C224.7 567.495 224.3 566.885 224.14 566.826C223.96 566.767 223.72 566.235 223.58 565.566C223.4 564.779 223.14 564.267 222.76 563.912C222.4 563.558 222.12 563.027 221.96 562.338C221.84 561.747 221.52 561.039 221.24 560.743C220.88 560.369 220.72 559.917 220.64 559.169C220.6 558.598 220.44 557.988 220.28 557.83C220.14 557.673 219.96 557.043 219.9 556.452C219.82 555.862 219.58 555.114 219.36 554.819C219.14 554.504 218.88 553.736 218.8 553.087C218.66 552.162 218.5 551.788 218.04 551.374C217.66 551.02 217.42 550.567 217.32 549.996C217.26 549.544 217.02 548.835 216.8 548.441C216.6 548.067 216.36 547.241 216.28 546.631C216.22 546.02 216.02 545.331 215.86 545.076C215.7 544.82 215.52 544.17 215.46 543.599C215.4 543.029 215.18 542.281 214.98 541.926C214.74 541.513 214.6 540.883 214.6 540.194C214.6 539.584 214.46 538.836 214.28 538.501C214.1 538.167 213.92 537.183 213.86 536.297C213.78 535.155 213.64 534.584 213.4 534.309C213.02 533.915 212.98 533.541 212.68 528.798C212.62 527.813 212.48 526.947 212.38 526.829C212.28 526.731 212.2 526.14 212.2 525.53C212.2 524.92 212.06 524.093 211.9 523.719C211.74 523.326 211.6 522.538 211.6 521.967C211.6 521.397 211.46 520.491 211.3 519.96C211.1 519.29 211.04 518.602 211.12 517.775C211.2 517.007 211.16 516.279 211.02 515.846C210.88 515.452 210.76 514.409 210.72 513.504C210.7 512.598 210.56 511.575 210.4 511.24C210.16 510.709 210.16 510.433 210.36 509.705C210.54 509.036 210.54 508.701 210.36 508.327C210.18 507.953 210.18 507.52 210.36 506.575C210.66 504.981 210.66 504.233 210.36 503.938C210.2 503.78 210.1 502.757 210.08 500.906C210.06 499.351 209.96 496.714 209.88 495.041C209.8 493.368 209.72 490.573 209.72 488.84C209.7 487.108 209.62 485.534 209.52 485.337C209.42 485.14 209.42 484.51 209.5 483.959C209.58 483.388 209.64 482.719 209.62 482.443C209.6 482.168 209.56 481.203 209.54 480.278C209.52 479.353 209.38 478.408 209.24 478.152C209.1 477.916 209.04 477.621 209.1 477.503C209.18 477.405 209.32 476.145 209.42 474.708C209.58 472.464 209.56 471.992 209.26 471.185C208.98 470.417 208.96 470.102 209.16 469.216C209.28 468.645 209.38 467.72 209.38 467.189C209.34 465.142 209.52 461.855 209.66 461.619C209.76 461.5 209.72 461.087 209.58 460.733C209.38 460.201 209.4 459.985 209.68 459.453C210 458.843 210.06 458.824 211.28 458.824C212.58 458.824 212.58 458.824 215.64 460.477C216.7 461.048 217.32 461.245 218.64 461.382C220.12 461.559 220.44 461.658 221.48 462.386C222.96 463.41 224.06 463.587 225.04 462.996C225.98 462.426 226.28 461.796 226.16 460.693C226.06 459.886 226.1 459.788 226.5 459.69C226.74 459.631 227.06 459.375 227.2 459.099C227.36 458.843 227.54 458.627 227.64 458.627C227.72 458.627 227.8 458.469 227.8 458.292C227.8 458.115 227.94 457.82 228.1 457.643C228.3 457.426 228.42 456.855 228.46 456.048C228.5 454.867 228.44 454.69 227.54 453.214C226.48 451.501 226.48 451.383 227.12 449.336C227.44 448.273 227.44 448.136 227.12 446.876C226.44 444.179 225.36 443.372 220.44 441.896C219.32 441.542 218.26 441.148 218.1 440.971C217.94 440.813 217.8 440.38 217.8 440.006C217.8 439.455 217.7 439.298 217.28 439.14C217 439.022 216.72 438.747 216.66 438.53C216.56 438.195 216.44 438.136 215.94 438.235C215.6 438.294 215.22 438.255 215.06 438.117C214.84 437.94 214.66 437.999 214.2 438.314C213.88 438.55 213.4 438.747 213.14 438.747C212.86 438.747 212.52 438.924 212.38 439.121C212.1 439.514 212.08 439.495 210.26 439.042C208 438.471 206.46 437.684 204.7 436.207C203.98 435.597 202.96 434.771 202.44 434.377C200.18 432.605 197.02 431.641 194.74 432.054C193.7 432.251 193.54 432.231 193.06 431.877C192.78 431.641 192.3 431.464 192.02 431.464C191.62 431.464 191.4 431.287 191.1 430.775C190.88 430.362 190.24 429.751 189.52 429.279L188.3 428.511L188.24 429.141C188.14 430.066 187.92 430.204 187.28 429.712C186.66 429.24 185.22 428.807 183.64 428.61L182.56 428.472L182.88 428.925L183.18 429.397L181.7 429.338C180.4 429.279 180.2 429.318 180.2 429.594C180.2 429.869 180.08 429.909 179.6 429.83C179.12 429.732 179.04 429.771 179.14 430.027C179.22 430.204 179.12 430.44 178.9 430.598C178.56 430.854 178.46 430.755 177.74 429.535C176.7 427.763 176 427.074 174.1 425.992C173.22 425.48 171.98 424.614 171.36 424.043C170.26 423.059 169.84 422.843 169.54 423.138ZM207.06 461.422C207.02 462.327 206.96 464.551 206.9 466.402C206.76 470.338 206.76 469.157 206.92 477.424C207 481.105 207.06 484.884 207.04 485.809C207 486.813 207.1 487.797 207.26 488.27C207.48 488.9 207.5 489.234 207.28 490.12C207.14 490.789 207.1 491.321 207.22 491.537C207.38 491.832 207.56 495.434 207.66 500.946C207.7 502.087 207.78 503.111 207.84 503.229C207.92 503.347 207.9 503.997 207.78 504.686C207.62 505.689 207.64 506.063 207.88 506.674C208.1 507.205 208.14 507.776 208.06 508.799C207.96 509.862 208.02 510.394 208.3 511.102C208.58 511.811 208.62 512.323 208.52 513.366C208.42 514.409 208.48 514.862 208.74 515.393C209.02 515.984 209.04 516.279 208.86 517.224C208.66 518.228 208.68 518.483 209.04 519.251C209.32 519.901 209.42 520.531 209.4 521.613C209.36 523.975 209.7 527.361 210.06 528.01C210.28 528.424 210.42 529.388 210.5 531.238C210.56 532.675 210.68 534.014 210.78 534.191C210.86 534.368 211 535.155 211.08 535.962C211.14 536.769 211.32 537.557 211.46 537.714C211.58 537.871 211.74 538.698 211.82 539.545C211.9 540.765 212.02 541.198 212.36 541.552C212.7 541.907 212.8 542.261 212.8 543.029C212.8 543.717 212.96 544.308 213.3 544.957C213.64 545.587 213.8 546.198 213.8 546.847C213.8 547.418 213.96 548.126 214.2 548.579C214.44 549.052 214.6 549.74 214.6 550.331C214.6 551.138 214.7 551.433 215.28 552.102C215.72 552.614 216 553.185 216.08 553.776C216.16 554.307 216.46 554.937 216.82 555.39C217.22 555.882 217.4 556.334 217.4 556.826C217.4 557.22 217.6 557.85 217.84 558.224C218.08 558.598 218.34 559.366 218.42 559.936C218.5 560.488 218.74 561.196 218.96 561.511C219.18 561.806 219.42 562.495 219.5 563.046C219.6 563.775 219.82 564.227 220.32 564.759C220.82 565.31 221 565.684 221 566.196C221 566.727 221.18 567.081 221.78 567.731C222.32 568.321 222.6 568.814 222.7 569.443C222.8 570.073 223.04 570.487 223.52 570.92C223.88 571.235 224.34 571.963 224.54 572.494C224.82 573.203 225.08 573.557 225.5 573.754C226.4 574.167 226.76 574.541 226.92 575.23C227.08 576.018 227.34 576.333 227.84 576.333C228.06 576.333 228.36 576.588 228.56 576.943C229.16 578.025 229.6 578.458 230.16 578.576C230.54 578.675 230.84 578.97 231.2 579.639C231.52 580.21 231.98 580.702 232.42 580.958C232.82 581.175 233.48 581.726 233.88 582.159C234.3 582.631 234.84 583.025 235.18 583.084C235.5 583.163 236.22 583.615 236.8 584.107C237.56 584.777 237.98 584.993 238.46 584.993C239.12 584.993 241 586.017 240.6 586.135C240.48 586.174 238.98 586.017 237.24 585.8C223.56 584.029 212.48 583.32 200.64 583.478C190.92 583.615 185.72 584.009 175.8 585.407C171.58 585.997 164.58 587.198 163.2 587.552C161.92 587.906 162.08 587.749 164.64 586.312C167.66 584.619 168.54 583.891 168.7 582.867C168.88 581.765 169.04 581.588 170.22 581.175C171.14 580.879 172.26 580.801 177.8 580.663C185.42 580.486 185.56 580.446 187.5 578.675C188.96 577.317 189.8 576.923 191.2 576.923C193.64 576.923 196.54 575.978 197.62 574.817C198.26 574.167 198.44 573.636 198.5 572.317C198.52 571.766 198.74 570.703 198.98 569.936C199.62 567.829 199.44 565.94 198.48 564.877C198.26 564.66 196.84 563.637 195.3 562.594C189.98 559.031 186.46 556.315 183.64 553.618C181.7 551.768 180.84 550.587 180.38 549.15C180.18 548.5 179.9 547.792 179.8 547.575C179.62 547.26 179.7 547.005 180.26 546.158C180.64 545.587 181.06 544.78 181.2 544.347C181.34 543.914 182.06 542.714 182.8 541.69C185.9 537.419 186.78 535.608 189.3 528.187C192.5 518.798 193.06 515.905 193.06 508.819C193.04 506.28 192.94 503.209 192.82 502.028C192.7 500.828 192.62 497.344 192.62 494.253C192.64 488.25 192.8 485.77 193.06 486.518C193.16 486.774 193.3 486.971 193.4 486.971C193.68 486.971 193.78 486.164 193.68 484.353L193.56 482.542L193.96 483.014C194.24 483.349 194.38 483.408 194.5 483.231C194.76 482.817 194.66 480.633 194.32 479.373C194.14 478.704 194 477.956 194 477.7C194.02 477.267 194.06 477.286 194.68 477.995L195.34 478.743L195.46 478.172C195.6 477.483 195.46 476.814 195.04 476.204C194.86 475.909 194.8 475.515 194.88 475.062C194.96 474.629 194.9 474.039 194.7 473.488C194.54 472.995 194.4 472.11 194.4 471.5C194.4 470.85 194.28 470.24 194.08 469.964C193.88 469.63 193.8 469.138 193.84 468.331C193.9 467.189 193.96 467.13 194.68 467.405C195.02 467.524 195.04 467.504 194.9 467.169C194.8 466.972 194.7 466.264 194.66 465.614C194.6 464.591 194.66 464.295 195.2 463.41C195.54 462.839 196.04 462.229 196.32 462.032C196.82 461.717 196.92 461.717 198.08 462.052C201.62 463.036 202.9 462.918 204.7 461.461C205.32 460.989 206.1 460.418 206.46 460.201C206.8 459.985 207.1 459.808 207.1 459.808C207.1 459.808 207.08 460.536 207.06 461.422ZM37.7 542.084C36.54 543.225 36.48 543.265 35.44 543.265H34.38L35 542.615C35.34 542.281 36.04 541.434 36.54 540.745L37.44 539.505L38.16 540.214L38.88 540.922L37.7 542.084Z" fill="black"/>
</g>
</g>
<defs>
<clipPath id="clip0_1_2">
<rect width="900" height="600" fill="white"/>
</clipPath>
<clipPath id="clip1_1_2">
<rect width="232" height="201" fill="white" transform="translate(680 391)"/>
</clipPath>
<clipPath id="clip2_1_2">
<rect width="256" height="174" fill="white" transform="translate(0 423)"/>
</clipPath>
</defs>
</svg>
